<svg xmlns="http://www.w3.org/2000/svg"  viewBox="0 0 100 100" width="100px" height="100px"><path d="M51.623,95c-6.179,0-11.759-2.994-15.154-7.818c-1.028,0.176-2.071,0.266-3.115,0.266 c-4.942,0-9.598-1.934-13.11-5.446c-4.366-4.366-6.195-10.422-5.189-16.232c-4.819-3.396-7.808-8.973-7.808-15.147 s2.989-11.751,7.808-15.147c-1.006-5.809,0.823-11.866,5.19-16.232c3.511-3.512,8.167-5.446,13.109-5.446 c1.044,0,2.087,0.09,3.115,0.266c3.395-4.825,8.976-7.818,15.154-7.818s10.648,4.163,14.043,8.988 c1.028-0.177,3.182-1.436,4.226-1.436c4.942,0,9.597,1.934,13.11,5.446c4.366,4.366,6.196,10.422,5.189,16.232 C93.011,38.872,96,44.449,96,50.623s-2.989,11.751-7.808,15.147c1.006,5.809-0.823,11.866-5.19,16.232 c-3.511,3.511-8.167,5.445-13.108,5.445c-0.001,0-0.001,0-0.001,0c-1.044,0-2.087-0.09-3.114-0.266 C63.383,92.006,57.802,95,51.623,95z" opacity=".35"/><path fill="#f2f2f2" d="M49.377,92.753c-6.179,0-11.759-2.994-15.154-7.818c-1.028,0.176-2.071,0.266-3.115,0.266 c-4.942,0-9.598-1.934-13.11-5.446c-4.366-4.366-6.195-10.422-5.189-16.232C7.989,60.128,5,54.551,5,48.377 s2.989-11.751,7.808-15.147c-1.006-5.809,0.823-11.866,5.19-16.232c3.511-3.512,8.167-5.446,13.109-5.446 c1.044,0,2.087,0.09,3.115,0.266C37.618,6.994,43.198,4,49.377,4s11.759,2.994,15.154,7.819c1.028-0.177,2.071-0.267,3.115-0.267 c4.942,0,9.597,1.934,13.11,5.446c4.366,4.366,6.196,10.422,5.189,16.232c4.819,3.396,7.808,8.973,7.808,15.147 s-2.989,11.751-7.808,15.147c1.006,5.809-0.823,11.866-5.19,16.232c-3.511,3.511-8.167,5.445-13.108,5.445 c-0.001,0-0.001,0-0.001,0c-1.044,0-2.087-0.09-3.114-0.266C61.136,89.759,55.555,92.753,49.377,92.753z"/><path fill="none" d="M51.623,48.377c0-0.321,0.022-0.636,0.048-0.951c-0.241-0.203-0.479-0.411-0.706-0.638 c-0.227-0.227-0.435-0.465-0.638-0.706c-0.314,0.026-0.63,0.048-0.951,0.048c-0.321,0-0.636-0.022-0.951-0.048 c-0.203,0.241-0.411,0.479-0.638,0.706c-0.227,0.227-0.465,0.435-0.706,0.638c0.026,0.314,0.048,0.63,0.048,0.951v0 c0,0.321-0.022,0.636-0.048,0.951c0.241,0.203,0.479,0.411,0.706,0.638v0c0.227,0.227,0.435,0.465,0.638,0.706 c0.314-0.026,0.63-0.048,0.951-0.048c0.321,0,0.636,0.022,0.951,0.048c0.203-0.241,0.411-0.479,0.638-0.706v0 c0.227-0.227,0.465-0.435,0.706-0.638C51.645,49.013,51.623,48.697,51.623,48.377L51.623,48.377z"/><path fill="#ffc571" d="M50.327,46.082c-0.353-0.418-0.668-0.856-0.951-1.309c-0.282,0.453-0.597,0.891-0.951,1.309 c0.314,0.026,0.63,0.048,0.951,0.048C49.697,46.13,50.013,46.108,50.327,46.082z"/><path fill="#ffc571" d="M47.788,30.9c0.621,0.621,1.144,1.3,1.589,2.015c0.445-0.714,0.968-1.394,1.589-2.015l8.738-8.738 c0.273-0.273,0.557-0.529,0.85-0.768c-0.573-5.667-5.358-10.091-11.177-10.091S38.773,15.726,38.2,21.393 c0.293,0.239,0.577,0.495,0.85,0.768L47.788,30.9z"/><path fill="#81c2f6" d="M48.426,50.671c0.353,0.418,0.668,0.856,0.951,1.309c0.282-0.453,0.597-0.891,0.951-1.309 c-0.314-0.026-0.63-0.048-0.951-0.048C49.056,50.623,48.74,50.645,48.426,50.671z"/><path fill="#81c2f6" d="M50.965,65.853c-0.621-0.621-1.144-1.3-1.589-2.015c-0.445,0.714-0.968,1.394-1.589,2.015 l-8.738,8.738c-0.273,0.273-0.557,0.529-0.85,0.768c0.573,5.667,5.358,10.091,11.177,10.091S59.98,81.027,60.553,75.36 c-0.293-0.239-0.577-0.495-0.85-0.768L50.965,65.853z"/><path fill="#96c362" d="M76.36,37.2c-0.239,0.293-0.495,0.577-0.768,0.85l-8.738,8.738c-0.621,0.621-1.3,1.144-2.015,1.589 c0.714,0.445,1.394,0.968,2.015,1.589l8.738,8.738c0.273,0.273,0.529,0.557,0.768,0.85c5.667-0.573,10.091-5.358,10.091-11.177v0 C86.451,42.558,82.027,37.773,76.36,37.2z"/><path fill="#96c362" d="M51.623,48.377L51.623,48.377c0,0.321,0.022,0.637,0.048,0.951 c0.418-0.353,0.855-0.668,1.309-0.951c-0.453-0.282-0.891-0.597-1.309-0.951C51.645,47.74,51.623,48.056,51.623,48.377z"/><path fill="#f4a3be" d="M47.13,48.377c0-0.321-0.022-0.636-0.048-0.951c-0.418,0.353-0.855,0.668-1.309,0.951 c0.453,0.282,0.891,0.597,1.309,0.951C47.108,49.013,47.13,48.697,47.13,48.377L47.13,48.377z"/><path fill="#f4a3be" d="M31.9,49.965c0.621-0.621,1.3-1.144,2.015-1.589c-0.714-0.445-1.394-0.968-2.015-1.589 l-8.738-8.738c-0.273-0.273-0.529-0.557-0.768-0.85c-5.667,0.573-10.091,5.358-10.091,11.177v0 c0,5.819,4.423,10.604,10.091,11.177c0.239-0.293,0.495-0.577,0.768-0.85L31.9,49.965z"/><path fill="#96c362" d="M60.611,34.895c0,0.878-0.111,1.728-0.301,2.548c0.82-0.19,1.67-0.301,2.548-0.301h12.358 c0.386,0,0.768,0.02,1.144,0.058c3.602-4.413,3.347-10.924-0.768-15.039h0c-4.114-4.114-10.626-4.37-15.039-0.768 c0.038,0.376,0.058,0.758,0.058,1.144V34.895z"/><path fill="#96c362" d="M51.671,47.426c0.046-0.545,0.132-1.077,0.253-1.598c-0.52,0.121-1.052,0.207-1.598,0.253 c0.203,0.241,0.411,0.479,0.638,0.706C51.192,47.015,51.431,47.223,51.671,47.426z"/><path fill="#f9b84f" d="M50.965,30.9c-0.621,0.621-1.144,1.3-1.589,2.015c2.256,3.621,2.256,8.238,0,11.858 c0.282,0.453,0.597,0.891,0.951,1.309c0.545-0.046,1.077-0.132,1.598-0.253c0.965-4.155,4.23-7.42,8.385-8.385 c0.19-0.82,0.301-1.67,0.301-2.548V22.537c0-0.386-0.02-0.768-0.058-1.144c-0.293,0.239-0.577,0.495-0.85,0.768L50.965,30.9z"/><path fill="#739f4d" d="M62.858,37.142c-0.878,0-1.728,0.111-2.548,0.301c-0.965,4.155-4.23,7.42-8.385,8.385 c-0.121,0.52-0.207,1.052-0.253,1.598c0.418,0.353,0.855,0.668,1.309,0.951c3.621-2.256,8.238-2.256,11.858,0 c0.714-0.445,1.394-0.968,2.015-1.589l8.738-8.738c0.273-0.273,0.529-0.557,0.768-0.85c-0.376-0.038-0.758-0.058-1.144-0.058 H62.858z"/><path fill="#82792c" d="M60.31,37.443c-4.155,0.965-7.42,4.23-8.385,8.385C56.08,44.863,59.345,41.598,60.31,37.443z"/><path fill="#bd7bc8" d="M38.142,61.858c0-0.878,0.111-1.728,0.301-2.548c-0.82,0.19-1.67,0.301-2.548,0.301H23.537 c-0.386,0-0.768-0.02-1.144-0.058c-3.602,4.413-3.346,10.924,0.768,15.039l0,0c4.114,4.114,10.626,4.37,15.039,0.768 c-0.038-0.376-0.058-0.758-0.058-1.144V61.858z"/><path fill="#bd7bc8" d="M47.788,49.965c-0.227-0.227-0.465-0.435-0.706-0.638c-0.046,0.545-0.132,1.077-0.253,1.598 c0.52-0.121,1.052-0.207,1.598-0.253C48.223,50.431,48.015,50.192,47.788,49.965L47.788,49.965z"/><path fill="#707cc0" d="M47.788,65.853c0.621-0.621,1.144-1.3,1.589-2.015c-2.256-3.621-2.256-8.238,0-11.858 c-0.282-0.453-0.597-0.891-0.951-1.309c-0.545,0.046-1.077,0.132-1.598,0.253c-0.965,4.155-4.23,7.42-8.385,8.385 c-0.19,0.82-0.301,1.67-0.301,2.548v12.358c0,0.386,0.02,0.768,0.058,1.144c0.293-0.239,0.577-0.495,0.85-0.768L47.788,65.853z"/><path fill="#d84178" d="M35.895,59.611c0.878,0,1.728-0.111,2.548-0.301c0.965-4.155,4.23-7.42,8.385-8.385 c0.121-0.52,0.207-1.052,0.253-1.598c-0.418-0.353-0.855-0.668-1.309-0.951c-3.621,2.256-8.238,2.256-11.858,0 c-0.714,0.445-1.394,0.968-2.015,1.589l-8.738,8.738c-0.273,0.273-0.529,0.557-0.768,0.85c0.376,0.038,0.758,0.058,1.144,0.058 H35.895z"/><path fill="#88265a" d="M38.443,59.31c4.155-0.965,7.42-4.23,8.385-8.385C42.673,51.89,39.408,55.155,38.443,59.31z"/><path fill="#27b0c1" d="M62.858,59.611c-0.878,0-1.728-0.111-2.548-0.301c0.19,0.82,0.301,1.67,0.301,2.548v12.358 c0,0.386-0.02,0.768-0.058,1.144c4.413,3.602,10.924,3.346,15.039-0.768l0,0c4.114-4.114,4.37-10.626,0.768-15.039 c-0.376,0.038-0.758,0.058-1.144,0.058H62.858z"/><path fill="#27b0c1" d="M50.965,49.965c-0.227,0.227-0.435,0.465-0.638,0.706c0.545,0.046,1.077,0.132,1.598,0.253 c-0.121-0.52-0.207-1.052-0.253-1.598C51.431,49.531,51.192,49.738,50.965,49.965L50.965,49.965z"/><path fill="#2785bd" d="M60.611,61.858c0-0.878-0.111-1.728-0.301-2.548c-4.155-0.965-7.42-4.23-8.385-8.385 c-0.52-0.121-1.052-0.207-1.598-0.253c-0.353,0.418-0.668,0.856-0.951,1.309c2.256,3.621,2.256,8.238,0,11.858 c0.445,0.714,0.968,1.394,1.589,2.015l8.738,8.738c0.273,0.273,0.557,0.529,0.85,0.768c0.038-0.376,0.058-0.758,0.058-1.144 V61.858z"/><path fill="#18796e" d="M66.853,49.965c-0.621-0.621-1.3-1.144-2.015-1.589c-3.621,2.256-8.238,2.256-11.858,0 c-0.453,0.282-0.891,0.597-1.309,0.951c0.046,0.545,0.132,1.077,0.253,1.598c4.155,0.965,7.42,4.23,8.385,8.385 c0.82,0.19,1.67,0.301,2.548,0.301h12.358c0.386,0,0.768-0.02,1.144-0.058c-0.239-0.293-0.495-0.577-0.768-0.85L66.853,49.965z"/><path fill="#146164" d="M60.31,59.31c-0.965-4.155-4.23-7.42-8.385-8.385C52.89,55.08,56.155,58.345,60.31,59.31z"/><path fill="#285e2c" d="M52.98,48.377c3.621,2.256,8.238,2.256,11.858,0C61.218,46.121,56.601,46.121,52.98,48.377z"/><path fill="#2b59a1" d="M49.377,63.839c2.256-3.621,2.256-8.238,0-11.858C47.121,55.601,47.121,60.218,49.377,63.839z"/><path fill="#ffc571" d="M48.426,46.082c-0.545-0.046-1.077-0.132-1.598-0.253c0.121,0.52,0.207,1.052,0.253,1.598 c0.241-0.203,0.479-0.411,0.706-0.638C48.015,46.561,48.223,46.322,48.426,46.082z"/><path fill="#ff7575" d="M35.895,37.142c0.878,0,1.728,0.111,2.548,0.301c-0.19-0.82-0.301-1.67-0.301-2.548V22.537 c0-0.386,0.02-0.768,0.058-1.144c-4.413-3.602-10.924-3.346-15.039,0.768h0c-4.114,4.114-4.37,10.626-0.768,15.039 c0.376-0.038,0.758-0.058,1.144-0.058H35.895z"/><path fill="#ef8630" d="M38.142,34.895c0,0.878,0.111,1.728,0.301,2.548c4.155,0.965,7.42,4.23,8.385,8.385 c0.52,0.121,1.052,0.207,1.598,0.253c0.353-0.418,0.668-0.856,0.951-1.309c-2.256-3.621-2.256-8.238,0-11.858 c-0.445-0.714-0.968-1.394-1.589-2.015l-8.738-8.738c-0.273-0.273-0.557-0.529-0.85-0.768c-0.038,0.376-0.058,0.758-0.058,1.144 V34.895z"/><path fill="#f4665c" d="M31.9,46.788c0.621,0.621,1.3,1.144,2.015,1.589c3.621-2.256,8.238-2.256,11.858,0 c0.453-0.282,0.891-0.597,1.309-0.951c-0.046-0.545-0.132-1.077-0.253-1.598c-4.155-0.965-7.42-4.23-8.385-8.385 c-0.82-0.19-1.67-0.301-2.548-0.301H23.537c-0.386,0-0.768,0.02-1.144,0.058c0.239,0.293,0.495,0.577,0.768,0.85L31.9,46.788z"/><path fill="#dd4f2c" d="M38.443,37.443c0.965,4.155,4.23,7.42,8.385,8.385C45.863,41.673,42.598,38.408,38.443,37.443z"/><path fill="#e66f2e" d="M49.377,32.915c-2.256,3.621-2.256,8.238,0,11.858C51.632,41.152,51.632,36.535,49.377,32.915z"/><path fill="#b73b3b" d="M33.915,48.377c3.621,2.256,8.238,2.256,11.858,0C42.152,46.121,37.535,46.121,33.915,48.377z"/><path fill="none" stroke="#40396e" stroke-linejoin="round" stroke-miterlimit="10" stroke-width="3" d="M76.36,37.2 c3.602-4.413,3.347-10.924-0.768-15.039h0c-4.114-4.114-10.626-4.37-15.039-0.768c-0.573-5.667-5.358-10.091-11.177-10.091 S38.773,15.726,38.2,21.393c-4.413-3.602-10.924-3.346-15.039,0.768h0c-4.114,4.114-4.37,10.626-0.768,15.039 c-5.667,0.573-10.091,5.358-10.091,11.177v0c0,5.819,4.423,10.604,10.091,11.177c-3.602,4.413-3.346,10.924,0.768,15.039l0,0 c4.114,4.114,10.626,4.37,15.039,0.768c0.573,5.667,5.358,10.091,11.177,10.091S59.98,81.027,60.553,75.36 c4.413,3.602,10.924,3.346,15.039-0.768l0,0c4.114-4.114,4.37-10.626,0.768-15.039c5.667-0.573,10.091-5.358,10.091-11.177v0 C86.451,42.558,82.027,37.773,76.36,37.2z"/></svg>